{
  "accessors": [
    {
      "bufferView": 2,
      "componentType": 5126,
      "count": 4017,
      "max": [
        0.99042010307312012,
        0.99041992425918579,
        1.8358237743377686
      ],
      "min": [
        -0.99042028188705444,
        -1.5042599439620972,
        -1.0759966373443604
      ],
      "type": "VEC3"
    },
    {
      "bufferView": 2,
      "byteOffset": 48204,
      "componentType": 5126,
      "count": 4017,
      "max": [
        1.0000008344650269,
        1,
        0.99314200878143311
      ],
      "min": [
        -1.0000007152557373,
        -1,
        -1.000002384185791
      ],
      "type": "VEC3"
    },
    {
      "bufferView": 3,
      "componentType": 5126,
      "count": 4017,
      "max": [
        1,
        0.99999964237213135,
        0.99991190433502197,
        1
      ],
      "min": [
        -0.99999517202377319,
        -0.99999964237213135,
        -0.99991071224212646,
        -1
      ],
      "type": "VEC4"
    },
    {
      "bufferView": 1,
      "componentType": 5126,
      "count": 4017,
      "max": [
        0.93127000331878662,
        0.9997599720954895
      ],
      "min": [
        0.00023999999393709004,
        0.00023999999393709004
      ],
      "type": "VEC2"
    },
    {
      "bufferView": 1,
      "byteOffset": 32136,
      "componentType": 5126,
      "count": 4017,
      "max": [
        0.93127000331878662,
        0.9997599720954895
      ],
      "min": [
        0.00023999999393709004,
        0.00023999999393709004
      ],
      "type": "VEC2"
    },
    {
      "bufferView": 0,
      "componentType": 5125,
      "count": 21744,
      "max": [
        4016
      ],
      "min": [
        0
      ],
      "type": "SCALAR"
    },
    {
      "bufferView": 2,
      "byteOffset": 96408,
      "componentType": 5126,
      "count": 32,
      "max": [
        1,
        1,
        1
      ],
      "min": [
        -1,
        -1,
        -1
      ],
      "type": "VEC3"
    },
    {
      "bufferView": 2,
      "byteOffset": 96792,
      "componentType": 5126,
      "count": 32,
      "max": [
        0.65070897340774536,
        0.65070897340774536,
        0.90541398525238037
      ],
      "min": [
        -0.65070897340774536,
        -0.65070897340774536,
        -0.90541398525238037
      ],
      "type": "VEC3"
    },
    {
      "bufferView": 3,
      "byteOffset": 64272,
      "componentType": 5126,
      "count": 32,
      "max": [
        0.55762791633605957,
        0.55762791633605957,
        0.72057461738586426,
        1
      ],
      "min": [
        -0.95108580589294434,
        -0.75932741165161133,
        -0.72061318159103394,
        -1
      ],
      "type": "VEC4"
    },
    {
      "bufferView": 1,
      "byteOffset": 64272,
      "componentType": 5126,
      "count": 32,
      "max": [
        0.72543001174926758,
        0.99980002641677856
      ],
      "min": [
        0.00019999999494757503,
        0.00019999999494757503
      ],
      "type": "VEC2"
    },
    {
      "bufferView": 0,
      "byteOffset": 86976,
      "componentType": 5125,
      "count": 84,
      "max": [
        31
      ],
      "min": [
        0
      ],
      "type": "SCALAR"
    },
    {
      "bufferView": 4,
      "componentType": 5126,
      "count": 1,
      "max": [
        1,
        0,
        0,
        0,
        0,
        1,
        0,
        0,
        0,
        0,
        1,
        0,
        0,
        0,
        0,
        1
      ],
      "min": [
        1,
        0,
        0,
        0,
        0,
        1,
        0,
        0,
        0,
        0,
        1,
        0,
        0,
        0,
        0,
        1
      ],
      "type": "MAT4"
    }
  ],
  "asset": {
    "extras": {
      "author": "Saulo Daniel (https://sketchfab.com/saulodaniel)",
      "license": "CC-BY-4.0 (http://creativecommons.org/licenses/by/4.0/)",
      "source": "https://sketchfab.com/models/6eaebab4981b461a99025a643820ce74",
      "title": "Freezing de Mari"
    },
    "generator": "Sketchfab-4.2.0",
    "version": "2.0"
  },
  "bufferViews": [
    {
      "buffer": 0,
      "byteLength": 87312,
      "byteOffset": 0,
      "name": "floatBufferViews",
      "target": 34963
    },
    {
      "buffer": 0,
      "byteLength": 64528,
      "byteOffset": 87312,
      "byteStride": 8,
      "name": "floatBufferViews",
      "target": 34962
    },
    {
      "buffer": 0,
      "byteLength": 97176,
      "byteOffset": 151840,
      "byteStride": 12,
      "name": "floatBufferViews",
      "target": 34962
    },
    {
      "buffer": 0,
      "byteLength": 64784,
      "byteOffset": 249016,
      "byteStride": 16,
      "name": "floatBufferViews",
      "target": 34962
    },
    {
      "buffer": 0,
      "byteLength": 64,
      "byteOffset": 313800,
      "byteStride": 64,
      "name": "floatBufferViews"
    }
  ],
  "buffers": [
    {
      "byteLength": 313864,
      "uri": "scene.bin"
    }
  ],
  "extensionsUsed": [
    "KHR_materials_unlit"
  ],
  "images": [
    {
      "uri": "textures/corpo_baseColor.png"
    },
    {
      "uri": "textures/gelo_baseColor.png"
    }
  ],
  "materials": [
    {
      "doubleSided": true,
      "emissiveFactor": [
        0,
        0,
        0
      ],
      "extensions": {
        "KHR_materials_unlit": {}
      },
      "name": "gelo",
      "pbrMetallicRoughness": {
        "baseColorFactor": [
          1,
          1,
          1,
          1
        ],
        "baseColorTexture": {
          "index": 1,
          "texCoord": 0
        },
        "metallicFactor": 0,
        "roughnessFactor": 1
      }
    },
    {
      "doubleSided": true,
      "emissiveFactor": [
        0,
        0,
        0
      ],
      "extensions": {
        "KHR_materials_unlit": {}
      },
      "name": "corpo",
      "pbrMetallicRoughness": {
        "baseColorFactor": [
          1,
          1,
          1,
          1
        ],
        "baseColorTexture": {
          "index": 0,
          "texCoord": 0
        },
        "metallicFactor": 0,
        "roughnessFactor": 1
      }
    }
  ],
  "meshes": [
    {
      "name": "Folhas_0",
      "primitives": [
        {
          "attributes": {
            "NORMAL": 1,
            "POSITION": 0,
            "TANGENT": 2,
            "TEXCOORD_0": 3,
            "TEXCOORD_1": 4
          },
          "indices": 5,
          "material": 1,
          "mode": 4
        }
      ]
    },
    {
      "name": "Cube_0",
      "primitives": [
        {
          "attributes": {
            "NORMAL": 7,
            "POSITION": 6,
            "TANGENT": 8,
            "TEXCOORD_0": 9
          },
          "indices": 10,
          "material": 0,
          "mode": 4
        }
      ]
    }
  ],
  "nodes": [
    {
      "children": [
        1
      ],
      "name": "RootNode (gltf orientation matrix)",
      "rotation": [
        -0.70710678118654746,
        -0,
        -0,
        0.70710678118654757
      ]
    },
    {
      "children": [
        2
      ],
      "name": "RootNode (model correction matrix)"
    },
    {
      "children": [
        3,
        7
      ],
      "name": "Root"
    },
    {
      "children": [
        4,
        5
      ],
      "matrix": [
        1.6680200000000001,
        0.079450000000000007,
        0.17164000000000001,
        0,
        -0.049020000000000008,
        1.6529700000000001,
        -0.28870000000000001,
        0,
        -0.18268000000000001,
        0.28185000000000004,
        1.64476,
        0,
        0,
        -0.18873000000000004,
        2.15158,
        1
      ],
      "name": "Armature"
    },
    {
      "name": "Armature_rootJoint"
    },
    {
      "children": [
        6
      ],
      "matrix": [
        0.59570000000000012,
        -0,
        -0,
        0,
        -0,
        0.59570000000000012,
        0,
        0,
        0,
        0,
        0.59570000000000012,
        0,
        0,
        -0,
        0.48119000000000001,
        1
      ],
      "name": "Folhas"
    },
    {
      "mesh": 0,
      "name": "Folhas_0"
    },
    {
      "children": [
        8
      ],
      "matrix": [
        1,
        0,
        0,
        0,
        0,
        1,
        0,
        0,
        0,
        0,
        1,
        0,
        -0.0046200000000000008,
        -0,
        1.0003299999999999,
        1
      ],
      "name": "Cube"
    },
    {
      "mesh": 1,
      "name": "Cube_0"
    }
  ],
  "samplers": [
    {
      "magFilter": 9729,
      "minFilter": 9987,
      "wrapS": 10497,
      "wrapT": 10497
    }
  ],
  "scene": 0,
  "scenes": [
    {
      "name": "OSG_Scene",
      "nodes": [
        0
      ]
    }
  ],
  "skins": [
    {
      "inverseBindMatrices": 11,
      "joints": [
        4
      ],
      "skeleton": 4
    }
  ],
  "textures": [
    {
      "sampler": 0,
      "source": 0
    },
    {
      "sampler": 0,
      "source": 1
    }
  ]
}

